<mxfile host="app.diagrams.net" agent="Mozilla/5.0 (Macintosh; Intel Mac OS X 10_15_7) AppleWebKit/537.36 (KHTML, like Gecko) Chrome/136.0.0.0 Safari/537.36" version="26.2.14">
  <diagram name="Page-1" id="6lPVBg0EaJN4s2K6R03W">
    <mxGraphModel dx="948" dy="1362" grid="0" gridSize="10" guides="1" tooltips="1" connect="1" arrows="1" fold="1" page="0" pageScale="1" pageWidth="850" pageHeight="1100" math="0" shadow="0">
      <root>
        <mxCell id="0" />
        <mxCell id="1" parent="0" />
        <mxCell id="Sif-vDeM9sXM9sqS0AdL-27" value="Dating Sim" style="rounded=1;whiteSpace=wrap;html=1;" parent="1" vertex="1">
          <mxGeometry x="17" y="144" width="120" height="60" as="geometry" />
        </mxCell>
        <mxCell id="Sif-vDeM9sXM9sqS0AdL-29" style="edgeStyle=orthogonalEdgeStyle;rounded=0;orthogonalLoop=1;jettySize=auto;html=1;fontSize=12;startSize=8;endSize=8;curved=1;exitX=1;exitY=0.5;exitDx=0;exitDy=0;exitPerimeter=0;" parent="1" source="Sif-vDeM9sXM9sqS0AdL-40" target="Sif-vDeM9sXM9sqS0AdL-27" edge="1">
          <mxGeometry relative="1" as="geometry">
            <mxPoint x="96" y="264" as="sourcePoint" />
          </mxGeometry>
        </mxCell>
        <mxCell id="Sif-vDeM9sXM9sqS0AdL-30" value="Romance" style="rounded=1;whiteSpace=wrap;html=1;" parent="1" vertex="1">
          <mxGeometry x="17" y="445" width="120" height="60" as="geometry" />
        </mxCell>
        <mxCell id="Sif-vDeM9sXM9sqS0AdL-31" style="edgeStyle=orthogonalEdgeStyle;curved=1;rounded=0;orthogonalLoop=1;jettySize=auto;html=1;fontSize=12;startSize=8;endSize=8;exitX=1;exitY=0.5;exitDx=0;exitDy=0;exitPerimeter=0;" parent="1" source="Sif-vDeM9sXM9sqS0AdL-40" target="Sif-vDeM9sXM9sqS0AdL-30" edge="1">
          <mxGeometry relative="1" as="geometry">
            <mxPoint x="96" y="354" as="sourcePoint" />
          </mxGeometry>
        </mxCell>
        <mxCell id="Sif-vDeM9sXM9sqS0AdL-33" value="Classical Shoujo" style="rounded=1;whiteSpace=wrap;html=1;" parent="1" vertex="1">
          <mxGeometry x="231" y="332" width="120" height="60" as="geometry" />
        </mxCell>
        <mxCell id="Sif-vDeM9sXM9sqS0AdL-35" style="edgeStyle=orthogonalEdgeStyle;shape=connector;curved=1;rounded=0;orthogonalLoop=1;jettySize=auto;html=1;strokeColor=default;align=center;verticalAlign=middle;fontFamily=Helvetica;fontSize=12;fontColor=default;labelBackgroundColor=default;startSize=8;endArrow=classic;endSize=8;exitX=1;exitY=0.5;exitDx=0;exitDy=0;exitPerimeter=0;" parent="1" source="Sif-vDeM9sXM9sqS0AdL-40" target="Sif-vDeM9sXM9sqS0AdL-33" edge="1">
          <mxGeometry relative="1" as="geometry">
            <mxPoint x="96" y="324" as="sourcePoint" />
          </mxGeometry>
        </mxCell>
        <mxCell id="Sif-vDeM9sXM9sqS0AdL-36" value="1990s" style="rounded=1;whiteSpace=wrap;html=1;" parent="1" vertex="1">
          <mxGeometry x="153" y="198" width="120" height="60" as="geometry" />
        </mxCell>
        <mxCell id="Sif-vDeM9sXM9sqS0AdL-37" style="edgeStyle=orthogonalEdgeStyle;shape=connector;curved=1;rounded=0;orthogonalLoop=1;jettySize=auto;html=1;strokeColor=default;align=center;verticalAlign=middle;fontFamily=Helvetica;fontSize=12;fontColor=default;labelBackgroundColor=default;startSize=8;endArrow=classic;endSize=8;exitX=1;exitY=0.5;exitDx=0;exitDy=0;exitPerimeter=0;" parent="1" source="Sif-vDeM9sXM9sqS0AdL-40" target="Sif-vDeM9sXM9sqS0AdL-36" edge="1">
          <mxGeometry relative="1" as="geometry">
            <mxPoint x="96" y="294" as="sourcePoint" />
          </mxGeometry>
        </mxCell>
        <mxCell id="Sif-vDeM9sXM9sqS0AdL-51" style="edgeStyle=orthogonalEdgeStyle;shape=connector;curved=1;rounded=0;orthogonalLoop=1;jettySize=auto;html=1;entryX=0;entryY=0.5;entryDx=0;entryDy=0;strokeColor=default;align=center;verticalAlign=middle;fontFamily=Helvetica;fontSize=12;fontColor=default;labelBackgroundColor=default;startSize=8;endArrow=classic;endSize=8;" parent="1" source="Sif-vDeM9sXM9sqS0AdL-40" target="Sif-vDeM9sXM9sqS0AdL-47" edge="1">
          <mxGeometry relative="1" as="geometry" />
        </mxCell>
        <mxCell id="Sif-vDeM9sXM9sqS0AdL-40" value="Tokimeki Memorial" style="shape=card;whiteSpace=wrap;html=1;fontFamily=Helvetica;fontSize=12;fontColor=default;labelBackgroundColor=default;" parent="1" vertex="1">
          <mxGeometry x="-63" y="273" width="80" height="100" as="geometry" />
        </mxCell>
        <mxCell id="Sif-vDeM9sXM9sqS0AdL-42" value="List" style="swimlane;fontStyle=0;childLayout=stackLayout;horizontal=1;startSize=30;horizontalStack=0;resizeParent=1;resizeParentMax=0;resizeLast=0;collapsible=1;marginBottom=0;whiteSpace=wrap;html=1;fontFamily=Helvetica;fontSize=12;fontColor=default;labelBackgroundColor=default;" parent="1" vertex="1">
          <mxGeometry x="-122" y="-101" width="140" height="150" as="geometry" />
        </mxCell>
        <mxCell id="Sif-vDeM9sXM9sqS0AdL-43" value="Type&lt;span style=&quot;white-space: pre;&quot;&gt;&#x9;&lt;/span&gt;" style="text;strokeColor=none;fillColor=none;align=left;verticalAlign=middle;spacingLeft=4;spacingRight=4;overflow=hidden;points=[[0,0.5],[1,0.5]];portConstraint=eastwest;rotatable=0;whiteSpace=wrap;html=1;fontFamily=Helvetica;fontSize=12;fontColor=default;labelBackgroundColor=default;" parent="Sif-vDeM9sXM9sqS0AdL-42" vertex="1">
          <mxGeometry y="30" width="140" height="30" as="geometry" />
        </mxCell>
        <mxCell id="Sif-vDeM9sXM9sqS0AdL-46" value="Era" style="text;strokeColor=none;fillColor=none;align=left;verticalAlign=middle;spacingLeft=4;spacingRight=4;overflow=hidden;points=[[0,0.5],[1,0.5]];portConstraint=eastwest;rotatable=0;whiteSpace=wrap;html=1;fontFamily=Helvetica;fontSize=12;fontColor=default;labelBackgroundColor=default;" parent="Sif-vDeM9sXM9sqS0AdL-42" vertex="1">
          <mxGeometry y="60" width="140" height="30" as="geometry" />
        </mxCell>
        <mxCell id="Sif-vDeM9sXM9sqS0AdL-44" value="Visuals" style="text;strokeColor=none;fillColor=none;align=left;verticalAlign=middle;spacingLeft=4;spacingRight=4;overflow=hidden;points=[[0,0.5],[1,0.5]];portConstraint=eastwest;rotatable=0;whiteSpace=wrap;html=1;fontFamily=Helvetica;fontSize=12;fontColor=default;labelBackgroundColor=default;" parent="Sif-vDeM9sXM9sqS0AdL-42" vertex="1">
          <mxGeometry y="90" width="140" height="30" as="geometry" />
        </mxCell>
        <mxCell id="Sif-vDeM9sXM9sqS0AdL-45" value="Themes" style="text;strokeColor=none;fillColor=none;align=left;verticalAlign=middle;spacingLeft=4;spacingRight=4;overflow=hidden;points=[[0,0.5],[1,0.5]];portConstraint=eastwest;rotatable=0;whiteSpace=wrap;html=1;fontFamily=Helvetica;fontSize=12;fontColor=default;labelBackgroundColor=default;" parent="Sif-vDeM9sXM9sqS0AdL-42" vertex="1">
          <mxGeometry y="120" width="140" height="30" as="geometry" />
        </mxCell>
        <mxCell id="Sif-vDeM9sXM9sqS0AdL-47" value="Bright" style="rounded=1;whiteSpace=wrap;html=1;" parent="1" vertex="1">
          <mxGeometry x="231" y="417" width="120" height="60" as="geometry" />
        </mxCell>
      </root>
    </mxGraphModel>
  </diagram>
</mxfile>
